# xmcd
#
# Track frame offsets:
#	150
#	14434
#	26738
#	40102
#	52841
#	65888
#	80834
#	93072
#	106576
#	120841
#	134099
#	147867
#	161839
#	174884
#	187855
#	200671
#	214977
#	229071
#	242535
#	254964
#	267899
#	279754
#
# Disc length: 3911 seconds
#
# Revision: 1
# Processed by: cddbd v1.5.2PL0 Copyright (c) Steve Scherf et al.
# Submitted via: audiograbber 1.83.01
#
DISCID=340f4516
DTITLE=Various Artist - Slide Guitar Blues
DYEAR=1995
DGENRE=
TTITLE0=bo weavil jackson - you can't keep no brown
TTITLE1=blind lemmon jefferson - jack O'diamonds blues
TTITLE2=sylvester weaver - guitar rag
TTITLE3=furry lewis - falling down blues
TTITLE4=blind willie Mctell - mama, tain't long fo'day
TTITLE5=blind willie johnson - dark was the night
TTITLE6=ramblin' thomas - so lonesome
TTITLE7=hambone willie newbern - roll and tumble blues
TTITLE8=charley patton - a spoonfuel blues
TTITLE9=son house - walking blues
TTITLE10=barbecue bob - atlanta moan
TTITLE11=king solomon hill - whoopee blues
TTITLE12=leadbelly - packin' trunk
TTITLE13=tampa red - denver blues
TTITLE14=kokomo arnold - old original kokomo blues
TTITLE15=oscar woods - lone wolf blues
TTITLE16=casey bill weldon - you just as well let her go
TTITLE17=robert johnson - terraplane blues
TTITLE18=black ace - black ace
TTITLE19=blind boy fuller - i'm a stranger here
TTITLE20=bukka white - bukka's jitterbug swing
TTITLE21=muddy waters - i be's troubled
EXTD=
EXTT0=
EXTT1=
EXTT2=
EXTT3=
EXTT4=
EXTT5=
EXTT6=
EXTT7=
EXTT8=
EXTT9=
EXTT10=
EXTT11=
EXTT12=
EXTT13=
EXTT14=
EXTT15=
EXTT16=
EXTT17=
EXTT18=
EXTT19=
EXTT20=
EXTT21=
PLAYORDER=
